<?xml version="1.0" encoding="UTF-8" standalone="no"?>
<svg
   xmlns:osb="http://www.openswatchbook.org/uri/2009/osb"
   xmlns:dc="http://purl.org/dc/elements/1.1/"
   xmlns:cc="http://creativecommons.org/ns#"
   xmlns:rdf="http://www.w3.org/1999/02/22-rdf-syntax-ns#"
   xmlns:svg="http://www.w3.org/2000/svg"
   xmlns="http://www.w3.org/2000/svg"
   xmlns:sodipodi="http://sodipodi.sourceforge.net/DTD/sodipodi-0.dtd"
   xmlns:inkscape="http://www.inkscape.org/namespaces/inkscape"
   width="160.08003mm"
   height="188.59674mm"
   viewBox="0 50 160.08003 151.0733"
   version="1.1"
   id="svg8"
   inkscape:version="1.0.1 (3bc2e813f5, 2020-09-07)"
   sodipodi:docname="jsprog-default-joystick.svg">
  <defs
     id="defs2">
    <linearGradient
       id="linearGradient925"
       osb:paint="solid">
      <stop
         style="stop-color:#000000;stop-opacity:1;"
         offset="0"
         id="stop923" />
    </linearGradient>
  </defs>
  <sodipodi:namedview
     id="base"
     pagecolor="#ffffff"
     bordercolor="#666666"
     borderopacity="1.0"
     inkscape:pageopacity="0.0"
     inkscape:pageshadow="2"
     inkscape:zoom="0.72275315"
     inkscape:cx="336.86442"
     inkscape:cy="500.05444"
     inkscape:document-units="mm"
     inkscape:current-layer="layer1"
     inkscape:document-rotation="0"
     showgrid="false"
     inkscape:window-width="1920"
     inkscape:window-height="1016"
     inkscape:window-x="0"
     inkscape:window-y="27"
     inkscape:window-maximized="1"
     inkscape:snap-nodes="false"
     inkscape:showpageshadow="false"
     inkscape:pagecheckerboard="true"
     fit-margin-top="0"
     fit-margin-left="0"
     fit-margin-right="0"
     fit-margin-bottom="0"
     lock-margins="false" />
  <metadata
     id="metadata5">
    <rdf:RDF>
      <cc:Work
         rdf:about="">
        <dc:format>image/svg+xml</dc:format>
        <dc:type
           rdf:resource="http://purl.org/dc/dcmitype/StillImage" />
        <dc:title></dc:title>
      </cc:Work>
    </rdf:RDF>
  </metadata>
  <g
     inkscape:groupmode="layer"
     id="layer1"
     inkscape:label="Layer 3"
     transform="translate(29.155303,-0.66270168)">
    <path
       style="display:inline;fill:#214478;stroke:#000000;stroke-width:0.264583px;stroke-linecap:butt;stroke-linejoin:miter;stroke-opacity:1"
       d="m -25.011412,164.28072 -3.298388,8.99487 -0.709783,8.32228 3.603011,5.45342 6.323873,5.47697 23.1339024,16.35559 25.5286326,10.11248 12.375142,1.36905 26.56935,-0.19009 17.205009,-3.86686 17.729623,-6.56891 16.02765,-7.21217 7.01195,-6.99153 4.29684,-5.31049 -1.39887,-9.50972"
       id="path1022-3" />
    <path
       style="display:inline;fill:#3771c8;stroke:#000000;stroke-width:0.264583px;stroke-linecap:butt;stroke-linejoin:miter;stroke-opacity:1"
       d="m 28.627877,140.71373 c -9.439182,3.05538 -9.489953,3.05538 -9.489953,3.05538 l -13.4638676,4.9396 -11.739111,5.53271 -10.9653554,5.28595 -7.863438,4.33805 7.537006,11.13293 7.067484,10.29089 10.23070235,7.08819 4.21413605,2.70283 11.8297816,5.0281 10.466145,2.80461 10.589561,1.3737 10.14516,0.53866 21.414719,-1.51723 27.61008,-6.77283 16.852983,-6.56179 16.2974,-9.20654 -0.86181,-7.37292 -4.21924,-9.52515 -8.19095,-6.55326 -9.38538,-5.49503 -6.32998,-4.36342 -6.035873,-4.10585 -6.27364,-2.43799"
       id="path1020-6"
       sodipodi:nodetypes="ccccccccccccccccccccccccc" />
    <path
       style="display:inline;fill:#333333;stroke:#000000;stroke-width:0.264583px;stroke-linecap:butt;stroke-linejoin:miter;stroke-opacity:1"
       d="m 59.252189,154.70157 c 0,0 1.468109,0.35056 2.273358,0.63639 0,0 1.068041,0.28036 1.846911,1.14599 0,0 0.49203,0.50947 0.63591,0.89982 l 0.0983,0.47146"
       id="path1009-7"
       sodipodi:nodetypes="ccccc" />
    <path
       style="display:inline;fill:#333333;stroke:#000000;stroke-width:0.264583px;stroke-linecap:butt;stroke-linejoin:miter;stroke-opacity:1"
       d="m 48.289927,154.53091 c -0.357939,0.0238 -2.199775,0.67517 -2.199775,0.67517 -0.620937,0.26715 -1.405945,0.79863 -1.405945,0.79863 0,0 -0.839039,0.62621 -1.150962,1.01305 l -0.582342,0.75442"
       id="path1011-5"
       sodipodi:nodetypes="ccccc" />
    <path
       style="display:inline;fill:#333333;stroke:#000000;stroke-width:0.264583px;stroke-linecap:butt;stroke-linejoin:miter;stroke-opacity:1"
       d="m 67.389068,149.15053 1.86018,1.02051 1.324171,0.69573 1.370828,0.81846 0.79446,0.62481 0.41346,0.76513 -0.0769,0.91837 -0.61453,1.01263 -1.1371,0.74261 -3.37335,0.96875 -3.629769,1.15925 -5.063411,1.65484 c 0,0 -0.876368,0.29394 -2.958308,0.75536 -0.346322,0.0768 -1.569342,0.36079 -1.927911,0.43278 l -1.85538,0.0655 -2.207871,-0.24427 -2.634869,-0.26344 -1.741924,-0.40714 -1.139867,-0.55936 -1.213446,-0.80839 -1.736341,-1.23392 -1.983317,-1.25688 -2.759181,-1.86956 -1.3433,-0.81493 -1.125691,-0.78848 -0.21912,-0.99175 0.167307,-0.7791 0.502412,-0.87929 0.588838,-0.4877 0.981337,-0.27864 1.1571,-0.40835 1.571593,-0.33948 1.14632,-0.16037 0.494295,-0.20473"
       id="path1018-3"
       sodipodi:nodetypes="ccccccccccccsccccccccccccccccccccc" />
    <path
       style="display:inline;fill:#808080;stroke:#000000;stroke-width:0.264583px;stroke-linecap:butt;stroke-linejoin:miter;stroke-opacity:1"
       d="m 20.454056,131.08538 v 0 0 0 0 c 0,0 -0.201856,0.29561 -0.159692,1.57105 0.0235,0.71047 0.16491,1.13784 0.213554,1.6031 l 1.336773,1.23384 7.312906,4.57761 10.594231,7.21469 6.105679,3.57798 c 1.73415,0.57399 3.62468,0.85849 3.62468,0.85849 l 5.912882,0.23654 c 5.06026,-1.30505 4.135149,-1.14466 6.202728,-1.71699 l 13.0558,-2.88098 c 5.93544,-2.05198 9.84308,-4.07327 9.84308,-4.07327 l 2.16942,-1.24429 1.47997,-1.85092 0.0288,-1.62519 -0.14651,-2.20642"
       id="path999-5"
       sodipodi:nodetypes="cccccscccccccccccccc" />
    <path
       style="display:inline;fill:#808080;stroke:#000000;stroke-width:0.264583px;stroke-linecap:butt;stroke-linejoin:miter;stroke-opacity:1"
       d="m 36.96221,32.03519 c -11.473244,0.522192 -21.405626,5.592684 -21.405626,5.592684 -2.854097,1.611777 -4.403386,4.018579 -4.403386,4.018579 0.84192,6.605569 2.065671,14.04681 2.065671,14.04681 l 0.921091,5.099871 c 0.37048,3.101388 2.572563,5.070068 2.572563,5.070068 2.492872,2.253379 5.664858,4.961286 5.664858,4.961286 l 4.514475,4.936789 4.494535,5.894711 2.233044,4.999159 3.906636,17.171393 2.773167,17.77986 -7.651607,2.55007 c -3.414419,1.38709 -4.7731,2.02321 -10.243254,4.16126 0,0 -1.12998,0.81981 -1.950321,2.76765 6.15087,2.87384 10.593163,5.41472 10.593163,5.41472 l 5.065721,3.96458 7.758453,7.08924 c 0,0 2.138162,1.0794 3.888026,1.34105 1.7931,0.0964 3.106259,-0.0812 3.106259,-0.0812 l 6.44295,-1.09635 11.20534,-3.01155 17.005279,-5.41242 c 1.55137,-0.38062 2.37024,-2.81896 2.37024,-2.81896 -0.46197,-1.10967 -1.02595,-1.8508 -1.02595,-1.8508 l -4.92382,-3.565 -8.07392,-4.99029 -3.206989,-1.90627 -3.47144,-19.90859 -2.568511,-17.815132 -1.759508,-16.91735 -0.22138,-6.315741 c 0.0821,-1.757019 1.160989,-4.992908 1.160989,-4.992908 0,0 1.0667,-1.73428 0.839049,-5.045892 l -1.223949,-4.169988 c -1.235379,-2.221127 -3.889221,-4.61527 -3.889221,-4.61527 l -3.6952,-1.728931 -4.953249,-1.431846 c -1.27563,-0.107486 -3.10256,-1.609253 -3.10256,-1.609253 z"
       id="path77-6"
       sodipodi:nodetypes="cccccccccccccccccccccccccccccccccccccccc" />
    <path
       style="display:inline;fill:none;stroke:#000000;stroke-width:0.264583px;stroke-linecap:butt;stroke-linejoin:miter;stroke-opacity:1"
       d="m 16.602498,37.652204 c 4.091464,14.333848 12.382953,23.921028 12.382953,23.921028 6.363345,8.552989 8.776409,15.617285 8.776409,15.617285 3.103917,11.47821 4.851146,20.668649 4.851146,20.668649 1.375645,10.213614 2.212102,16.118424 2.212102,16.118424 l 1.478211,15.74618 0.63014,5.3702"
       id="path82-2"
       sodipodi:nodetypes="ccccccc" />
    <path
       style="display:inline;fill:none;stroke:#000000;stroke-width:0.264583px;stroke-linecap:butt;stroke-linejoin:miter;stroke-opacity:1"
       d="m 46.933459,135.09397 c -2.809124,-2.08646 -2.224977,-1.34708 -3.902575,-3.13624 0,0 -1.170096,-1.07955 -2.123948,-3.03406"
       id="path86-9"
       sodipodi:nodetypes="ccc" />
    <path
       style="display:inline;fill:none;stroke:#000000;stroke-width:0.264583px;stroke-linecap:butt;stroke-linejoin:miter;stroke-opacity:1"
       d="m 46.933459,135.09397 c 0,0 4.113548,3.2488 7.570359,3.79256 4.003349,0.19488 5.517239,0.14229 8.52475,-0.31251 2.90998,-0.72304 7.113299,-2.83605 8.760949,-4.03132 0,0 1.56919,-1.94728 1.53623,-2.7793"
       id="path84-1"
       sodipodi:nodetypes="ccccc" />
    <path
       style="display:inline;fill:none;stroke:#000000;stroke-width:0.264583px;stroke-linecap:butt;stroke-linejoin:miter;stroke-opacity:1"
       d="M 40.906936,128.92367 40.299238,121.6064"
       id="path90-2" />
    <path
       style="display:inline;fill:none;stroke:#000000;stroke-width:0.264583px;stroke-linecap:butt;stroke-linejoin:miter;stroke-opacity:1"
       d="m 73.325747,131.7634 c -2.713829,-7.94369 -2.713829,-7.94369 -2.713829,-7.94369"
       id="path92-7" />
    <path
       style="display:inline;fill:none;stroke:#000000;stroke-width:0.264583px;stroke-linecap:butt;stroke-linejoin:miter;stroke-opacity:1"
       d="m 63.414058,48.996528 c 0,0 -3.79654,3.922099 -4.51304,7.758607 0,0 -1.183219,5.665869 -0.62897,11.095016 0,0 -0.113599,6.647746 1.467789,15.526525 l 2.097151,14.773302 2.693749,16.946052 c 0.73274,7.3761 4.33546,15.86495 4.33546,15.86495 1.06294,1.62834 2.92332,3.58172 2.92332,3.58172"
       id="path929-0"
       sodipodi:nodetypes="cccccccc" />
    <path
       style="display:inline;fill:#214478;fill-rule:evenodd;stroke:none;stroke-width:0.249074"
       id="path1056-9"
       sodipodi:type="arc"
       sodipodi:cx="36.712456"
       sodipodi:cy="45.799004"
       sodipodi:rx="5.9313979"
       sodipodi:ry="4.1731653"
       sodipodi:start="6.1638133"
       sodipodi:end="6.1574079"
       sodipodi:open="true"
       sodipodi:arc-type="arc"
       d="m 42.601644,45.302027 a 5.9313979,4.1731653 0 0 1 -5.173396,4.639643 5.9313979,4.1731653 0 0 1 -6.602688,-3.632422 5.9313979,4.1731653 0 0 1 5.15225,-4.651277 5.9313979,4.1731653 0 0 1 6.619188,3.617526" />
    <path
       style="display:inline;fill:#aa0000;fill-rule:evenodd;stroke:none;stroke-width:0.249074"
       id="path921-7-3"
       sodipodi:type="arc"
       sodipodi:cx="36.712456"
       sodipodi:cy="41.041977"
       sodipodi:rx="4.3940401"
       sodipodi:ry="2.7470922"
       sodipodi:start="6.1638133"
       sodipodi:end="6.1574079"
       sodipodi:open="true"
       sodipodi:arc-type="arc"
       d="m 41.075226,40.714829 a 4.3940401,2.7470922 0 0 1 -3.832504,3.054163 4.3940401,2.7470922 0 0 1 -4.891338,-2.391134 4.3940401,2.7470922 0 0 1 3.816838,-3.061821 4.3940401,2.7470922 0 0 1 4.903563,2.381328" />
    <path
       style="display:inline;fill:#4d4d4d;stroke:#000000;stroke-width:0.264583px;stroke-linecap:butt;stroke-linejoin:miter;stroke-opacity:1"
       d="m 48.410418,151.90732 0.0438,5.25977 c 0,0 0.962502,0.79339 1.3168,0.99813 0.701061,0.39643 1.65812,0.72773 1.65812,0.72773 0.72023,0.1184 2.3666,-0.11108 2.3666,-0.11108 1.23871,-0.26529 2.44375,-0.63057 2.44375,-0.63057 1.040831,-0.45692 1.37051,-0.56587 1.983571,-0.96567 0.679169,-0.43954 0.841901,-0.65164 0.82556,-0.63877 l 0.0281,-1.39939 v -1.73185 l 0.0404,-2.46383"
       id="path1001-6"
       sodipodi:nodetypes="ccccccccccc" />
    <path
       style="display:inline;fill:none;stroke:#000000;stroke-width:0.264583px;stroke-linecap:butt;stroke-linejoin:miter;stroke-opacity:1"
       d="m 71.190657,155.7073 c -3.57968,-2.5636 -6.484969,-4.20233 -6.484969,-4.20233 l -2.195211,-1.41511"
       id="path1014-0"
       sodipodi:nodetypes="ccc" />
    <path
       style="display:inline;fill:none;stroke:#000000;stroke-width:0.264583px;stroke-linecap:butt;stroke-linejoin:miter;stroke-opacity:1"
       d="m 44.438194,150.25483 -4.025617,1.04405 c -0.693782,0.24994 -0.733046,0.18876 -2.081347,0.74981 0,0 -0.426225,0.16795 -0.852562,0.60443 -0.197985,0.6039 -0.179892,1.38223 -0.179892,1.38223"
       id="path1016-6"
       sodipodi:nodetypes="ccccc" />
    <path
       style="display:inline;fill:#214478;stroke:#000000;stroke-width:0.264583px;stroke-linecap:butt;stroke-linejoin:miter;stroke-opacity:1"
       d="M -23.251515,163.55752 10.9332,153.49026 32.351427,166.49487 -8.4613766,176.82165 Z"
       id="path1024-2" />
    <path
       style="display:inline;fill:none;stroke:#000000;stroke-width:0.264583px;stroke-linecap:butt;stroke-linejoin:miter;stroke-opacity:1"
       d="M -4.4916606,157.92387 11.302444,171.53404"
       id="path1026-6" />
    <ellipse
       style="display:inline;fill:none;stroke:#000000;stroke-width:1;stroke-miterlimit:4;stroke-dasharray:none;stroke-opacity:1"
       id="path1036-1"
       cx="-3.2422283"
       cy="169.49278"
       rx="6.2095232"
       ry="2.7554827" />
    <ellipse
       style="display:inline;fill:none;stroke:#000000;stroke-width:1;stroke-miterlimit:4;stroke-dasharray:none;stroke-opacity:1"
       id="ellipse1040-8"
       cx="15.501599"
       cy="164.53688"
       rx="6.2095232"
       ry="2.7554827" />
    <path
       id="path1052-7"
       style="display:inline;fill:#aa0000;fill-rule:evenodd;stroke:none;stroke-width:0.249074"
       d="m 41.075226,45.481625 c 0.288674,1.504675 -1.426207,2.87128 -3.832505,3.054162 -2.406298,0.182883 -4.594958,-0.887045 -4.891339,-2.391134 v -4.766791 c 0.296381,1.504089 2.485041,2.574017 4.891339,2.391134 2.406298,-0.182884 4.121179,-1.549488 3.832505,-3.054163 z"
       sodipodi:nodetypes="csccscc" />
  </g>
</svg>
